<?xml version="1.0" encoding="UTF-8" standalone="no"?>
<svg
   xmlns:dc="http://purl.org/dc/elements/1.1/"
   xmlns:cc="http://creativecommons.org/ns#"
   xmlns:rdf="http://www.w3.org/1999/02/22-rdf-syntax-ns#"
   xmlns:svg="http://www.w3.org/2000/svg"
   xmlns="http://www.w3.org/2000/svg"
   xmlns:sodipodi="http://sodipodi.sourceforge.net/DTD/sodipodi-0.dtd"
   xmlns:inkscape="http://www.inkscape.org/namespaces/inkscape"
   version="1.1"
   id="Layer_1"
   x="0px"
   y="0px"
   width="40px"
   height="40px"
   viewBox="12 12 40 40"
   enable-background="new 12 12 40 40"
   xml:space="preserve"
   inkscape:version="0.91 r13725"
   sodipodi:docname="github.svg"><metadata
     id="metadata9"><rdf:RDF><cc:Work
         rdf:about=""><dc:format>image/svg+xml</dc:format><dc:type
           rdf:resource="http://purl.org/dc/dcmitype/StillImage" /></cc:Work></rdf:RDF></metadata><defs
     id="defs7" /><sodipodi:namedview
     pagecolor="#ffffff"
     bordercolor="#666666"
     borderopacity="1"
     objecttolerance="10"
     gridtolerance="10"
     guidetolerance="10"
     inkscape:pageopacity="0"
     inkscape:pageshadow="2"
     inkscape:window-width="1327"
     inkscape:window-height="761"
     id="namedview5"
     showgrid="false"
     inkscape:zoom="5.9"
     inkscape:cx="20"
     inkscape:cy="20"
     inkscape:window-x="0"
     inkscape:window-y="0"
     inkscape:window-maximized="0"
     inkscape:current-layer="Layer_1" /><path
     fill="#333333"
     d="M32 13.4c-10.5 0-19 8.5-19 19c0 8.4 5.5 15.5 13 18c1 0.2 1.3-0.4 1.3-0.9c0-0.5 0-1.7 0-3.2 c-5.3 1.1-6.4-2.6-6.4-2.6C20 41.6 18.8 41 18.8 41c-1.7-1.2 0.1-1.1 0.1-1.1c1.9 0.1 2.9 2 2.9 2c1.7 2.9 4.5 2.1 5.5 1.6 c0.2-1.2 0.7-2.1 1.2-2.6c-4.2-0.5-8.7-2.1-8.7-9.4c0-2.1 0.7-3.7 2-5.1c-0.2-0.5-0.8-2.4 0.2-5c0 0 1.6-0.5 5.2 2 c1.5-0.4 3.1-0.7 4.8-0.7c1.6 0 3.3 0.2 4.7 0.7c3.6-2.4 5.2-2 5.2-2c1 2.6 0.4 4.6 0.2 5c1.2 1.3 2 3 2 5.1c0 7.3-4.5 8.9-8.7 9.4 c0.7 0.6 1.3 1.7 1.3 3.5c0 2.6 0 4.6 0 5.2c0 0.5 0.4 1.1 1.3 0.9c7.5-2.6 13-9.7 13-18.1C51 21.9 42.5 13.4 32 13.4z"
     id="path3"
     style="fill:#ffffff;fill-opacity:1" /></svg>